<svg width="58" height="58" viewBox="0 0 58 58" fill="none" xmlns="http://www.w3.org/2000/svg">
<path d="M49.5061 8.49383C44.0287 3.01657 36.7462 0 29 0C21.2537 0 13.9711 3.01657 8.49383 8.49383C3.01645 13.9712 0 21.2538 0 29C0 36.7462 3.01645 44.0287 8.49383 49.5061C13.9712 54.9834 21.2537 58 29 58C36.7462 58 44.0287 54.9834 49.5061 49.5061C54.9834 44.0287 58 36.7462 58 29C58 21.2538 54.9834 13.9713 49.5061 8.49383ZM29 54.6016C14.8832 54.6016 3.39844 43.1168 3.39844 29C3.39844 14.8832 14.8832 3.39844 29 3.39844C43.1168 3.39844 54.6016 14.8832 54.6016 29C54.6016 43.1168 43.1168 54.6016 29 54.6016Z" fill="#0A1D42"/>
<path d="M42.8548 19.6948C42.1913 19.0315 41.1153 19.0315 40.4518 19.695L25.4467 34.7001L17.548 26.8013C16.8845 26.1378 15.8085 26.1378 15.1449 26.8013C14.4813 27.4648 14.4813 28.5407 15.1449 29.2043L24.2451 38.3046C24.5769 38.6364 25.0118 38.8022 25.4466 38.8022C25.8814 38.8022 26.3164 38.6362 26.6481 38.3046L42.8548 22.0979C43.5184 21.4344 43.5184 20.3584 42.8548 19.6948Z" fill="#152E5E"/>
</svg>
