<svg width="54" height="54" viewBox="0 0 54 54" fill="none" xmlns="http://www.w3.org/2000/svg">
<g clip-path="url(#clip0)">
<path d="M31.3767 51.9957C31.0994 51.9957 30.8275 52.1086 30.631 52.3047C30.4349 52.5008 30.322 52.7732 30.322 53.0504C30.322 53.3277 30.4349 53.6 30.631 53.7962C30.8275 53.9923 31.0994 54.1051 31.3767 54.1051C31.6544 54.1051 31.9263 53.9923 32.1224 53.7962C32.3185 53.6 32.4314 53.3277 32.4314 53.0504C32.4314 52.7732 32.3185 52.5008 32.1224 52.3047C31.9263 52.1086 31.6544 51.9957 31.3767 51.9957Z" fill="#152E5E"/>
<path d="M22.6758 47.777C22.3973 47.777 22.1262 47.8899 21.9301 48.086C21.734 48.2821 21.6211 48.5544 21.6211 48.8317C21.6211 49.1089 21.734 49.3813 21.9301 49.5774C22.1262 49.7735 22.3981 49.8864 22.6758 49.8864C22.9531 49.8864 23.225 49.7735 23.4211 49.5774C23.6176 49.3813 23.7305 49.1089 23.7305 48.8317C23.7305 48.5544 23.6176 48.2821 23.4211 48.086C23.225 47.8899 22.9531 47.777 22.6758 47.777Z" fill="#152E5E"/>
<path d="M40.0779 47.777C39.8006 47.777 39.5283 47.8899 39.3322 48.086C39.1361 48.2821 39.0232 48.5544 39.0232 48.8317C39.0232 49.1089 39.1361 49.3813 39.3322 49.5774C39.5283 49.7735 39.8006 49.8864 40.0779 49.8864C40.3556 49.8864 40.6275 49.7735 40.8236 49.5774C41.0197 49.3813 41.1326 49.1089 41.1326 48.8317C41.1326 48.5544 41.0197 48.2821 40.8236 48.086C40.6275 47.8899 40.3564 47.777 40.0779 47.777Z" fill="#152E5E"/>
<path d="M6.01914 49.5774C6.21524 49.3813 6.32813 49.1089 6.32813 48.8317C6.32813 48.5544 6.21524 48.2821 6.01914 48.086C5.82303 47.8899 5.55071 47.777 5.27344 47.777C4.99617 47.777 4.72385 47.8899 4.52774 48.086C4.33163 48.2821 4.21875 48.5544 4.21875 48.8317C4.21875 49.1089 4.33163 49.3813 4.52774 49.5774C4.72385 49.7735 4.99617 49.8864 5.27344 49.8864C5.55071 49.8864 5.82303 49.7735 6.01914 49.5774Z" fill="#152E5E"/>
<path d="M53.5671 52.1988L48.4782 48.4819C48.5717 48.3896 48.6599 48.2903 48.7402 48.1815L53.5041 41.7352C53.9058 41.1913 54.0718 40.5235 53.9713 39.8548C53.8711 39.1862 53.5164 38.5966 52.9726 38.1949L48.5619 34.9353C47.4392 34.1064 45.8514 34.3445 45.0216 35.4668L40.2578 41.9135C40.1911 42.0038 40.1313 42.0981 40.0778 42.1949V35.1207C40.0778 33.7253 38.9423 32.5898 37.5465 32.5898H32.0621C30.6663 32.5898 29.5309 33.7253 29.5309 35.1207V43.1363C29.5309 43.2801 29.5437 43.421 29.5667 43.5582H27.3857C27.4087 43.421 27.4215 43.2801 27.4215 43.1363V35.1207C27.4215 33.7253 26.2861 32.5898 24.8903 32.5898H19.4059C18.0101 32.5898 16.8746 33.7253 16.8746 35.1207V43.1363C16.8746 43.2801 16.8874 43.421 16.9105 43.5582H5.27345C2.36564 43.5582 0 45.9238 0 48.8317C0 51.7395 2.36564 54.1051 5.27345 54.1051H27.5974C28.18 54.1051 28.6521 53.633 28.6521 53.0504C28.6521 52.4683 28.18 51.9957 27.5974 51.9957H26.8917C27.555 51.1137 27.9489 50.0182 27.9489 48.8317C27.9489 47.6455 27.555 46.5496 26.8917 45.6676H35.8619C35.1986 46.5496 34.8047 47.6455 34.8047 48.8317C34.8047 50.0182 35.1986 51.1137 35.8619 51.9957H35.1912C34.6086 51.9957 34.1365 52.4683 34.1365 53.0504C34.1365 53.633 34.6086 54.1051 35.1912 54.1051H52.945C53.4015 54.1051 53.806 53.8118 53.9478 53.3775C54.0891 52.9437 53.9358 52.4679 53.5671 52.1988ZM41.9544 43.1668L46.7182 36.7204C46.801 36.6084 46.9287 36.5495 47.0581 36.5495C47.145 36.5495 47.2332 36.5762 47.3082 36.6319L51.7189 39.8911C51.8413 39.9813 51.8755 40.1033 51.8854 40.1675C51.8952 40.2322 51.8977 40.3591 51.8075 40.4811L47.0437 46.9274C46.9246 47.0889 46.712 47.1396 46.5357 47.0626L44.8989 45.8674L44.6171 45.6589C44.6813 45.6713 44.7464 45.6779 44.8119 45.6779C45.0904 45.6779 45.3615 45.5654 45.5576 45.3689C45.755 45.1728 45.8666 44.9009 45.8666 44.6232C45.8666 44.3451 45.755 44.074 45.5576 43.8767C45.3615 43.6806 45.0904 43.5685 44.8119 43.5685C44.5347 43.5685 44.2628 43.6806 44.0667 43.8767C43.8701 44.074 43.7572 44.3451 43.7572 44.6232C43.7572 44.7946 43.8005 44.9635 43.8796 45.1139L43.5706 44.8856C43.3333 44.6751 43.0775 44.4852 42.8047 44.3196L42.043 43.7564C41.9206 43.6661 41.8864 43.5446 41.8765 43.4799C41.867 43.4157 41.8642 43.2892 41.9544 43.1668ZM18.9844 43.1363V35.1207C18.9844 34.8879 19.1735 34.6988 19.4063 34.6988H24.8907C25.123 34.6988 25.3125 34.8879 25.3125 35.1207V43.1363C25.3125 43.3691 25.123 43.5582 24.8907 43.5582H22.6033C22.7104 43.5071 22.8093 43.4391 22.8938 43.3547C23.0899 43.1586 23.2028 42.8863 23.2028 42.609C23.2028 42.3317 23.0899 42.0594 22.8938 41.8633C22.6977 41.6672 22.4257 41.5543 22.1481 41.5543C21.8708 41.5543 21.5989 41.6672 21.4024 41.8633C21.2063 42.0594 21.0934 42.3317 21.0934 42.609C21.0934 42.8863 21.2063 43.1586 21.4024 43.3547C21.4868 43.4391 21.5861 43.5071 21.6932 43.5582H19.4063C19.1735 43.5582 18.9844 43.3691 18.9844 43.1363ZM18.4599 51.9957H9.48932C10.153 51.1137 10.5469 50.0178 10.5469 48.8317C10.5469 47.6451 10.153 46.5496 9.48932 45.6676H18.4599C17.7962 46.5496 17.4024 47.6451 17.4024 48.8317C17.4024 50.0178 17.7962 51.1137 18.4599 51.9957ZM2.10938 48.8317C2.10938 47.0869 3.52868 45.6676 5.27345 45.6676C7.01822 45.6676 8.43752 47.0869 8.43752 48.8317C8.43752 50.5764 7.01822 51.9957 5.27345 51.9957C3.52868 51.9957 2.10938 50.5764 2.10938 48.8317ZM19.5118 48.8317C19.5118 47.0869 20.9311 45.6676 22.6758 45.6676C24.4202 45.6676 25.8399 47.0869 25.8399 48.8317C25.8399 50.5764 24.4202 51.9957 22.6758 51.9957C20.9311 51.9957 19.5118 50.5764 19.5118 48.8317ZM31.6403 43.1363V35.1207C31.6403 34.8879 31.8298 34.6988 32.0621 34.6988H37.5465C37.7793 34.6988 37.9684 34.8879 37.9684 35.1207V43.1363C37.9684 43.3691 37.7793 43.5582 37.5465 43.5582H35.2596C35.3667 43.5071 35.4656 43.4391 35.55 43.3547C35.7461 43.1586 35.859 42.8863 35.859 42.609C35.859 42.3317 35.7461 42.0594 35.55 41.8633C35.3539 41.6672 35.0816 41.5543 34.8043 41.5543C34.5271 41.5543 34.2547 41.6672 34.0586 41.8633C33.8625 42.0594 33.7496 42.3317 33.7496 42.609C33.7496 42.8863 33.8625 43.1586 34.0586 43.3547C34.1431 43.4391 34.2424 43.5071 34.3491 43.5582H32.0621C31.8298 43.5582 31.6403 43.3691 31.6403 43.1363ZM36.9137 48.8317C36.9137 47.0869 38.3334 45.6676 40.0778 45.6676C40.6463 45.6676 41.1794 45.8192 41.6413 46.0825L42.2415 46.5262C42.8566 47.1038 43.2419 47.9232 43.2419 48.8317C43.2419 50.5764 41.8226 51.9957 40.0778 51.9957C38.3334 51.9957 36.9137 50.5764 36.9137 48.8317ZM44.2937 51.9957C44.9574 51.1137 45.3512 50.0178 45.3512 48.8317C45.3512 48.8259 45.3508 48.8205 45.3508 48.8148C45.3665 48.8246 45.3821 48.8341 45.3978 48.8436L49.7129 51.9957H44.2937Z" fill="#152E5E"/>
<path d="M4.19928 24.2327C4.20505 24.2434 4.21247 24.2529 4.21865 24.2636V32.168C4.21865 33.5634 5.35408 34.6989 6.7499 34.6989H12.2343C13.6301 34.6989 14.7655 33.5634 14.7655 32.168V24.2636C14.7717 24.2529 14.7787 24.2434 14.7849 24.2327L16.7765 20.5364C16.9969 20.1269 16.9235 19.6213 16.5956 19.2922L12.5915 15.2687V4.81655C12.5915 4.234 12.1189 3.76186 11.5368 3.76186C10.9542 3.76186 10.4821 4.234 10.4821 4.81655V14.6412H8.50208V1.16016C8.50208 0.577607 8.02995 0.105469 7.4474 0.105469C6.86484 0.105469 6.39271 0.577607 6.39271 1.16016V15.2687L2.38859 19.2922C2.06065 19.6213 1.98732 20.1269 2.20773 20.5364L4.19928 24.2327ZM12.6562 32.1676C12.6562 32.4004 12.4666 32.5895 12.2343 32.5895H9.94693C10.054 32.5384 10.1533 32.4704 10.2374 32.386C10.4339 32.1899 10.5468 31.9179 10.5468 31.6403C10.5468 31.363 10.4339 31.0911 10.2374 30.8946C10.0413 30.6985 9.76936 30.5856 9.49209 30.5856C9.21441 30.5856 8.9425 30.6985 8.74639 30.8946C8.55029 31.0911 8.4374 31.363 8.4374 31.6403C8.4374 31.9179 8.55029 32.1899 8.74639 32.386C8.83085 32.4704 8.92973 32.5384 9.03685 32.5895H6.7499C6.51713 32.5895 6.32802 32.4004 6.32802 32.1676V24.152C6.32802 23.9196 6.51713 23.7301 6.7499 23.7301H12.2343C12.4666 23.7301 12.6562 23.9196 12.6562 24.152V32.1676ZM7.89358 16.7506H11.0902L14.548 20.2249L13.5848 22.0129C13.1938 21.7649 12.7303 21.6207 12.2343 21.6207H6.7499C6.25345 21.6207 5.79038 21.7649 5.3994 22.0129L4.43618 20.2249L7.89358 16.7506Z" fill="#152E5E"/>
<path d="M11.5374 2.21485C11.8146 2.21485 12.0857 2.10196 12.2831 1.90586C12.4792 1.70975 12.592 1.43743 12.592 1.16016C12.592 0.88289 12.4792 0.610566 12.2831 0.41446C12.0857 0.218353 11.8146 0.105469 11.5374 0.105469C11.2589 0.105469 10.9878 0.218353 10.7904 0.41446C10.5943 0.610566 10.4827 0.88289 10.4827 1.16016C10.4827 1.43743 10.5943 1.70975 10.7904 1.90586C10.9878 2.10196 11.2589 2.21485 11.5374 2.21485Z" fill="#152E5E"/>
</g>
<defs>
<clipPath id="clip0">
<rect width="54" height="54" fill="white"/>
</clipPath>
</defs>
</svg>
