<svg width="53" height="55" viewBox="0 0 53 55" fill="none" xmlns="http://www.w3.org/2000/svg">
<g clip-path="url(#clip0)">
<path d="M49.4309 42.8744C49.4309 37.0499 42.9356 32.482 37.368 32.2656L34.5275 29.6593C37.9871 27.0815 40.087 22.939 40.087 18.5365V11.5456C40.087 5.1211 34.9525 -0.105957 28.6415 -0.105957H24.4928C18.1903 -0.105957 13.1202 5.10248 13.1202 11.5456V18.5365C13.1202 22.9315 15.1922 27.0662 18.6068 29.6394L15.7448 32.2656C10.1894 32.4816 3.68188 37.0379 3.68188 42.8744V53.0675C3.68188 53.6525 4.14619 54.1267 4.71907 54.1267H48.3937C48.9666 54.1267 49.4309 53.6525 49.4309 53.0675V42.8744ZM24.259 47.1358H28.8481L29.9356 52.0082H23.14L24.259 47.1358ZM28.9373 45.0173H24.1934L23.3977 42.4855L26.557 40.8722L29.784 42.5207L28.9373 45.0173ZM26.5566 37.6896L22.9524 31.8013C24.1229 32.1336 25.3391 32.3061 26.5671 32.3061C27.7834 32.3061 28.9907 32.1369 30.1551 31.81L26.5566 37.6896ZM28.0411 39.2619L33.0208 31.1244L35.7065 33.5888L32.2891 41.4317L28.0411 39.2619ZM24.4928 2.01251H28.6415C33.8088 2.01251 38.0126 6.28874 38.0126 11.5456V12.4211L36.0651 9.55705C35.8888 9.29762 35.608 9.13212 35.2997 9.10564C34.991 9.07915 34.688 9.19459 34.4716 9.42051C32.3632 11.6226 29.9222 12.6048 26.557 12.6048C23.1923 12.6048 20.7508 11.6226 18.6408 9.42051C18.4236 9.19335 18.1178 9.07833 17.8086 9.10605C17.4991 9.13377 17.2179 9.30176 17.0429 9.56408L15.1946 12.3301V11.5456C15.1946 6.28874 19.3656 2.01251 24.4928 2.01251ZM15.1946 18.5365V16.0883L18.0752 11.7773C20.3829 13.782 23.11 14.7233 26.557 14.7233C30.0077 14.7233 32.7368 13.7799 35.0449 11.7711L38.0126 16.1355V18.5365C38.0126 24.8799 32.9357 30.1881 26.5671 30.1881C20.2193 30.1881 15.1946 24.8965 15.1946 18.5365ZM20.092 31.1248L25.0725 39.2619L20.8237 41.4317L17.4063 33.5888L20.092 31.1248ZM5.75625 42.8744C5.75625 38.5109 10.9503 34.7432 15.4891 34.4006L19.3697 43.3052C19.4847 43.5691 19.7007 43.774 19.9673 43.8716C20.2339 43.9693 20.5276 43.951 20.7812 43.822L21.5202 43.4442L22.3617 46.1204L21.0093 52.0082H5.75625V42.8744ZM47.3566 52.0082H32.063L30.7527 46.1365L31.655 43.4761L32.3316 43.822C32.5869 43.9523 32.8814 43.9684 33.1456 43.8716C33.4121 43.774 33.6281 43.5691 33.7431 43.3052L37.6237 34.4006C42.1626 34.7436 47.3566 38.5109 47.3566 42.8744V52.0082Z" fill="#152E5E"/>
<path d="M40.0404 47.1357H35.8917C35.3188 47.1357 34.8545 47.6099 34.8545 48.195C34.8545 48.78 35.3188 49.2542 35.8917 49.2542H40.0404C40.6133 49.2542 41.0776 48.78 41.0776 48.195C41.0776 47.6099 40.6133 47.1357 40.0404 47.1357Z" fill="#152E5E"/>
<path d="M44.1322 47.1357C44.7046 47.1357 45.1693 47.6103 45.1693 48.195C45.1693 48.7796 44.7046 49.2542 44.1322 49.2542C43.5597 49.2542 43.095 48.7796 43.095 48.195C43.095 47.6103 43.5597 47.1357 44.1322 47.1357Z" fill="#152E5E"/>
</g>
<defs>
<clipPath id="clip0">
<rect width="53" height="54.2326" fill="white"/>
</clipPath>
</defs>
</svg>
