<svg width="44" height="44" viewBox="0 0 44 44" fill="none" xmlns="http://www.w3.org/2000/svg">
<path d="M39.3031 35.0656C39.7747 34.4138 40.0537 33.614 40.0537 32.7499V27.5859C40.0537 27.1113 39.6689 26.7266 39.1944 26.7266H35.3537C33.5782 26.7266 32.1338 28.171 32.1338 29.9465V32.7499C32.1338 33.6135 32.4124 34.4127 32.8835 35.0643C32.296 35.1596 31.7308 35.3478 31.2036 35.6233C30.0096 33.8417 28.0534 32.6129 25.8055 32.4057C25.7967 32.4032 25.7878 32.4014 25.7789 32.3992C26.5832 31.5011 27.0735 30.3162 27.0735 29.0185V22C27.0735 21.5254 26.6887 21.1406 26.2141 21.1406H20.9941C18.7512 21.1406 16.9265 22.9653 16.9265 25.2082V29.0184C16.9265 30.3161 17.4168 31.501 18.2211 32.3991C18.2122 32.4013 18.2033 32.4032 18.1945 32.4056C15.9463 32.6129 13.99 33.8418 12.7961 35.6237C12.2688 35.3482 11.7035 35.1599 11.1163 35.0646C11.5874 34.413 11.8663 33.6136 11.8663 32.7499V27.5859C11.8663 27.1113 11.4814 26.7266 11.0069 26.7266H7.16616C5.39069 26.7266 3.94625 28.171 3.94625 29.9465V32.7499C3.94625 33.6141 4.22529 34.4138 4.69691 35.0656C2.03689 35.5004 0 37.8137 0 40.5947V43.1406C0 43.6153 0.384828 44 0.859375 44H43.1406C43.6152 44 44 43.6153 44 43.1406V40.5947C44 37.8137 41.9631 35.5004 39.3031 35.0656ZM5.665 29.9465C5.665 29.1187 6.33841 28.4453 7.16616 28.4453H10.1475V29.4919C10.1475 30.0052 9.73002 30.4226 9.21688 30.4226H5.665V29.9465ZM5.665 32.1413H9.21688C9.5443 32.1413 9.85781 32.0812 10.1475 31.9721V32.7499C10.1475 33.9857 9.14212 34.9912 7.90625 34.9912C6.67038 34.9912 5.665 33.9857 5.665 32.7499V32.1413ZM8.46029 36.7099L7.90625 37.264L7.35221 36.7099H8.46029ZM11.5631 39.6804V42.2812H1.71875V40.5947C1.71875 38.6672 3.1301 37.0638 4.97346 36.7618L7.29859 39.087C7.4598 39.2481 7.67834 39.3387 7.90625 39.3387C8.13416 39.3387 8.3527 39.2481 8.51391 39.087L10.8397 36.7611C11.2505 36.8279 11.6456 36.9603 12.0137 37.154C11.7226 37.9418 11.5631 38.7928 11.5631 39.6804ZM22.0001 32.3733C20.1503 32.3733 18.6453 30.8683 18.6453 29.0185V27.8827H23.7813C24.3508 27.8827 24.8871 27.7372 25.3548 27.4816V29.0185C25.3548 30.8683 23.8499 32.3733 22.0001 32.3733ZM23.4981 34.0919L22 35.59L20.5019 34.0919H23.4981ZM18.6452 25.2082H18.6453C18.6453 23.9131 19.6989 22.8594 20.9941 22.8594H25.3547V24.5905C25.3547 25.4581 24.6489 26.164 23.7812 26.164H18.6452V25.2082ZM30.7181 42.2812H29.0469H14.9531H13.2819V40.5625H18.8776C19.3522 40.5625 19.737 40.1778 19.737 39.7031C19.737 39.2285 19.3522 38.8438 18.8776 38.8438H13.3447C13.713 36.4013 15.6681 34.4733 18.1228 34.1434L21.3923 37.413C21.5602 37.5808 21.7801 37.6647 22 37.6647C22.2199 37.6647 22.4398 37.5808 22.6077 37.413L25.8772 34.1434C28.6063 34.5102 30.7181 36.8526 30.7181 39.6804V42.2812ZM33.8525 29.9465C33.8525 29.1187 34.5259 28.4453 35.3537 28.4453H38.335V29.4919C38.335 30.0052 37.9175 30.4226 37.4044 30.4226H33.8525V29.9465ZM33.8525 32.1413H37.4044C37.7318 32.1413 38.0453 32.0812 38.335 31.9721V32.7499C38.335 33.9857 37.3296 34.9912 36.0938 34.9912C34.8579 34.9912 33.8525 33.9857 33.8525 32.7499V32.1413ZM36.6478 36.7099L36.0938 37.264L35.5397 36.7099H36.6478ZM32.4369 42.2812V39.6804C32.4369 38.7927 32.2774 37.9417 31.9861 37.1539C32.3541 36.96 32.7491 36.8277 33.1599 36.7609L35.486 39.087C35.6472 39.2481 35.8658 39.3387 36.0937 39.3387C36.3216 39.3387 36.5401 39.2481 36.7013 39.087L39.0265 36.7618C40.8698 37.0639 42.2812 38.6672 42.2812 40.5947V42.2812H32.4369Z" fill="#152E5E"/>
<path d="M26.2353 5.61497C25.8996 5.27938 25.3557 5.27938 25.0199 5.61497L20.8029 9.83201L18.98 8.00902C18.6443 7.67334 18.1003 7.67334 17.7646 8.00893C17.429 8.34452 17.429 8.88867 17.7646 9.22434L20.1953 11.655C20.3565 11.8161 20.575 11.9067 20.8029 11.9067C21.0309 11.9067 21.2494 11.8161 21.4106 11.655L26.2353 6.8303C26.5709 6.49471 26.5709 5.95056 26.2353 5.61497Z" fill="#832FA5"/>
<path d="M25.5138 0.745119C25.0804 0.551846 24.5722 0.746494 24.3789 1.17996C24.1855 1.61343 24.3802 2.12158 24.8137 2.31485C27.3058 3.42628 28.9161 5.90704 28.9161 8.63487C28.9161 12.4484 25.8135 15.551 21.9999 15.551C18.1864 15.551 15.0838 12.4484 15.0838 8.63487C15.0838 5.92114 16.6825 3.44553 19.1566 2.32809C19.5891 2.13275 19.7815 1.62366 19.586 1.19113C19.3907 0.758526 18.8814 0.566283 18.4492 0.761619C15.3608 2.15656 13.3651 5.24695 13.3651 8.63478C13.365 13.3961 17.2387 17.2698 21.9999 17.2698C26.7612 17.2698 30.6349 13.3962 30.6349 8.63487C30.6349 5.22942 28.6247 2.13249 25.5138 0.745119Z" fill="#152E5E"/>
<path d="M22.0308 0H22C21.5255 0 21.1406 0.384742 21.1406 0.859375C21.1406 1.33401 21.5255 1.71875 22 1.71875H22.0227C22.0241 1.71875 22.0253 1.71875 22.0268 1.71875C22.4996 1.71875 22.8839 1.33667 22.8861 0.863414C22.8883 0.388781 22.5054 0.00223438 22.0308 0Z" fill="#152E5E"/>
<path d="M22.6075 39.0955C22.4477 38.9357 22.226 38.8438 22 38.8438C21.774 38.8438 21.5523 38.9357 21.3924 39.0955C21.2326 39.2554 21.1406 39.4771 21.1406 39.7031C21.1406 39.9291 21.2325 40.1509 21.3924 40.3107C21.5524 40.4705 21.774 40.5625 22 40.5625C22.226 40.5625 22.4477 40.4705 22.6075 40.3107C22.7673 40.1509 22.8594 39.9291 22.8594 39.7031C22.8594 39.4771 22.7674 39.2554 22.6075 39.0955Z" fill="#152E5E"/>
</svg>
