<svg width="52" height="52" viewBox="0 0 52 52" fill="none" xmlns="http://www.w3.org/2000/svg">
<path d="M12.1334 34.2334C9.26553 34.2334 6.93335 36.5656 6.93335 39.4334C6.93335 42.3012 9.26553 44.6334 12.1334 44.6334C15.0012 44.6334 17.3334 42.3012 17.3334 39.4334C17.3334 36.5656 15.0011 34.2334 12.1334 34.2334ZM12.1334 42.9C10.2214 42.9 8.66672 41.3452 8.66672 39.4334C8.66672 37.5215 10.2215 35.9668 12.1334 35.9668C14.0452 35.9668 15.6 37.5216 15.6 39.4334C15.6 41.3452 14.0452 42.9 12.1334 42.9Z" fill="#152E5E"/>
<path d="M41.5999 34.2334C38.7321 34.2334 36.3999 36.5656 36.3999 39.4334C36.3999 42.3012 38.7321 44.6334 41.5999 44.6334C44.4677 44.6334 46.7999 42.3012 46.7999 39.4334C46.7999 36.5656 44.4677 34.2334 41.5999 34.2334ZM41.5999 42.9C39.688 42.9 38.1333 41.3452 38.1333 39.4334C38.1333 37.5215 39.6881 35.9668 41.5999 35.9668C43.5118 35.9668 45.0665 37.5216 45.0665 39.4334C45.0665 41.3452 43.5118 42.9 41.5999 42.9Z" fill="#152E5E"/>
<path d="M51.8622 29.4313L44.0622 17.298C43.9027 17.0501 43.628 16.9001 43.3333 16.9001H33.8C33.3207 16.9001 32.9333 17.2884 32.9333 17.7668V39.4334C32.9333 39.9127 33.3207 40.3 33.8 40.3H37.2666V38.5667H34.6666V18.6335H42.8601L50.2666 30.155V38.5669H45.9333V40.3001H51.1333C51.6125 40.3001 51.9999 39.9128 51.9999 39.4335V29.9001C52 29.7346 51.9524 29.5708 51.8622 29.4313Z" fill="#152E5E"/>
<path d="M38.1334 28.1667V22.1001H45.0668V20.3667H37.2668C36.7875 20.3667 36.4001 20.755 36.4001 21.2333V29.0333C36.4001 29.5126 36.7875 29.9 37.2668 29.9H50.2668V28.1666H38.1334V28.1667Z" fill="#152E5E"/>
<path d="M33.8 10.8335H0.866633C0.388273 10.8335 0 11.2218 0 11.7001V39.4335C0 39.9128 0.388273 40.3001 0.866633 40.3001H7.8V38.5668H1.73337V12.5668H32.9334V38.5668H16.4666V40.3001H33.8C34.2793 40.3001 34.6666 39.9128 34.6666 39.4335V11.7001C34.6666 11.2218 34.2793 10.8335 33.8 10.8335Z" fill="#152E5E"/>
<path d="M6.0667 35.1H0.866699V36.8333H6.0667V35.1Z" fill="#152E5E"/>
<path d="M32.9333 35.1H18.2V36.8333H32.9333V35.1Z" fill="#152E5E"/>
<path d="M51.1334 35.1H47.6667V36.8333H51.1334V35.1Z" fill="#152E5E"/>
<path d="M33.7999 14.3H3.46655V16.0334H33.7999V14.3Z" fill="#152E5E"/>
<path d="M13 38.5667H11.2666V40.3H13V38.5667Z" fill="#832FA5"/>
<path d="M42.4668 38.5667H40.7334V40.3H42.4668V38.5667Z" fill="#832FA5"/>
<path d="M15.5999 7.3667H3.46655V9.10007H15.5999V7.3667Z" fill="#832FA5"/>
<path d="M1.73337 7.3667H0V9.10007H1.73337V7.3667Z" fill="#832FA5"/>
</svg>
