<svg width="44" height="44" viewBox="0 0 44 44" fill="none" xmlns="http://www.w3.org/2000/svg">
<path d="M42.1667 16.4972H38.5184C38.2589 15.7117 37.9435 14.9459 37.5742 14.2056L40.15 11.6298C40.1502 11.6296 40.1503 11.6294 40.1505 11.6292C40.8663 10.9131 40.8661 9.75236 40.15 9.0365L34.9635 3.85C34.2381 3.1576 33.0966 3.1576 32.3712 3.85L29.7917 6.4277C29.0514 6.05851 28.2856 5.74295 27.5 5.4835V1.8333C27.5 0.820789 26.6792 0 25.6667 0H18.3334C17.3208 0 16.5 0.820789 16.5 1.8333V5.4835C15.7136 5.74217 14.9468 6.05713 14.2056 6.42581L11.6298 3.85C10.9044 3.15657 9.7619 3.15657 9.0365 3.85L3.85 9.0365C3.13431 9.75245 3.13431 10.9129 3.85 11.6288L6.4277 14.2083C6.05851 14.9486 5.74295 15.7144 5.4835 16.5H1.8333C0.820789 16.5 0 17.3208 0 18.3333V22H1.8333V18.3333H6.15905C6.5676 18.3334 6.92682 18.0631 7.04 17.6706C7.35797 16.5598 7.79883 15.488 8.3545 14.4751C8.55224 14.1175 8.48942 13.6722 8.2005 13.3833L5.14705 10.3326L10.3326 5.14705L13.3869 8.2005C13.6757 8.48899 14.1204 8.55173 14.4777 8.3545C15.4899 7.79917 16.5608 7.35831 17.6705 7.04C18.063 6.92682 18.3333 6.5676 18.3332 6.15905V1.8333H25.6665V6.15905C25.6664 6.5676 25.9367 6.92682 26.3293 7.04C27.4403 7.35805 28.5123 7.79891 29.5257 8.3545C29.883 8.55173 30.3278 8.48899 30.6165 8.2005L33.6672 5.14705L38.8528 10.3326L35.7993 13.3861C35.5104 13.675 35.4476 14.1202 35.6453 14.4778C36.2008 15.4899 36.6417 16.5608 36.9598 17.6706C37.073 18.0631 37.4322 18.3334 37.8408 18.3333H42.1665V22H44V18.3306C44 17.318 43.1792 16.4972 42.1667 16.4972Z" fill="#152E5E"/>
<path d="M21.9999 11.9167C16.9374 11.9167 12.8333 16.0208 12.8333 21.0834V22H14.6666V21.0834C14.6666 17.0333 17.9499 13.7501 21.9999 13.7501C26.05 13.7501 29.3332 17.0333 29.3332 21.0834V22H31.1665V21.0834C31.1666 16.0208 27.0625 11.9167 21.9999 11.9167Z" fill="#152E5E"/>
<path d="M22.9163 3.66675H21.083V5.50005H22.9163V3.66675Z" fill="#152E5E"/>
<path d="M11.0003 9.16699H9.16699V11.0003H11.0003V9.16699Z" fill="#152E5E"/>
<path d="M5.50005 20.167H3.66675V22.0003H5.50005V20.167Z" fill="#152E5E"/>
<path d="M40.3333 20.167H38.5V22.0003H40.3333V20.167Z" fill="#152E5E"/>
<path d="M34.8333 9.16699H33V11.0003H34.8333V9.16699Z" fill="#152E5E"/>
<path d="M11 34.8333H1.8333C0.820789 34.8333 0 35.6541 0 36.6666V42.1666C0 43.1792 0.820789 43.9999 1.8333 43.9999H11C12.0125 43.9999 12.8333 43.1792 12.8333 42.1666V36.6666C12.8333 35.6541 12.0125 34.8333 11 34.8333ZM11 42.1666H1.8333V36.6666H11V42.1666Z" fill="#152E5E"/>
<path d="M42.1668 34.8333H33.0001C31.9875 34.8333 31.1667 35.654 31.1667 36.6666V42.1666C31.1667 43.1791 31.9875 43.9999 33.0001 43.9999H42.1668C43.1793 43.9999 44.0001 43.1791 44.0001 42.1666V36.6666C44.0001 35.6541 43.1793 34.8333 42.1668 34.8333ZM42.1668 42.1666H33.0001V36.6666H42.1668V42.1666Z" fill="#152E5E"/>
<path d="M26.5833 34.8333H17.4167C16.4042 34.8333 15.5834 35.654 15.5834 36.6666V42.1666C15.5834 43.1791 16.4042 43.9999 17.4167 43.9999H26.5834C27.5959 43.9999 28.4167 43.1791 28.4167 42.1666V36.6666C28.4167 35.6541 27.5958 34.8333 26.5833 34.8333ZM26.5834 42.1666H26.5833H17.4167V36.6666H26.5834V42.1666Z" fill="#152E5E"/>
<path d="M37.5833 27.5H6.4167C5.91044 27.5 5.5 27.9104 5.5 28.4167V33H7.3333V29.3333H36.6666V33H38.5V28.4167C38.5 27.9104 38.0896 27.5 37.5833 27.5Z" fill="#152E5E"/>
<path d="M22.9163 21.083H21.083V33H22.9163V21.083Z" fill="#152E5E"/>
<path d="M5.50005 38.5H3.66675V40.3333H5.50005V38.5Z" fill="#152E5E"/>
<path d="M9.16631 38.5H7.33301V40.3333H9.16631V38.5Z" fill="#152E5E"/>
<path d="M21.0833 38.5H19.25V40.3333H21.0833V38.5Z" fill="#152E5E"/>
<path d="M24.7503 38.5H22.917V40.3333H24.7503V38.5Z" fill="#152E5E"/>
<path d="M36.6664 38.5H34.8331V40.3333H36.6664V38.5Z" fill="#152E5E"/>
<path d="M40.3333 38.5H38.5V40.3333H40.3333V38.5Z" fill="#152E5E"/>
<path d="M22 16.5C19.4688 16.5 17.4167 18.552 17.4167 21.0833V22H19.25V21.0833C19.25 19.5645 20.4813 18.3333 22 18.3333C23.5188 18.3333 24.75 19.5645 24.75 21.0833V22H26.5833V21.0833C26.5833 18.552 24.5313 16.5 22 16.5Z" fill="#152E5E"/>
</svg>
