<svg width="54" height="57" viewBox="0 0 54 57" fill="none" xmlns="http://www.w3.org/2000/svg">
<path d="M51.3002 46.1315C45.9286 43.0117 41.8084 41.2623 38.1406 40.5917L38.5202 40.0201C38.7002 39.8229 38.7902 39.5272 38.7002 39.2315L37.8494 35.5042C40.0435 32.0557 41.3033 27.7518 41.2202 23.6571V17.7936C41.2812 17.7455 41.3414 17.6958 41.4002 17.6443C42.5702 16.5599 43.2003 14.9828 43.2003 13.4057C43.2003 6.01284 37.7103 0 31.0502 0H23.0402C16.2901 0 10.8001 6.01284 10.7101 13.3072C10.7101 14.9829 11.34 16.4615 12.5101 17.5457C12.5395 17.5706 12.5702 17.5937 12.6001 17.6178V23.6571C12.6001 27.7646 13.9127 32.0826 16.1435 35.5364L15.3001 39.2314C15.3001 39.4286 15.3001 39.7243 15.4801 40.02L15.8597 40.5916C12.1919 41.2623 8.07155 43.0116 2.70011 46.1314C0.990039 47.0186 0 48.8914 0 50.9615V55.2C0 55.7914 0.359966 56.1857 0.899968 56.1857H53.1001C53.6401 56.1857 54.0001 55.7914 54.0001 55.2V50.9615C54.0002 48.9901 52.9202 47.1172 51.3002 46.1315ZM36.4501 37.4572L36.8101 39.2315L35.8907 40.6141C35.8321 40.6666 35.7778 40.7303 35.7301 40.8086L30.7801 48.3L28.3534 42.2954C30.9715 41.9505 33.3355 40.6217 35.3019 38.6838C35.6968 38.3025 36.0802 37.8935 36.4501 37.4572ZM40.2301 16.067C40.2065 16.0897 40.1818 16.1107 40.1577 16.1325C40.0565 16.1583 39.9583 16.1998 39.8702 16.2642C39.4808 16.5841 39.065 16.7875 38.6373 16.8768C38.2982 16.9337 37.9531 16.9287 37.6202 16.8557C31.1652 15.5133 24.636 15.3898 18.3693 16.4849C17.6739 16.5949 16.9806 16.7181 16.2901 16.8557C16.1793 16.8692 16.0684 16.8766 15.9578 16.879C15.2343 16.8648 14.5331 16.6446 13.9501 16.1657C13.4101 15.7714 13.0501 15.18 12.8701 14.5886L16.7401 13.8C23.4901 12.4199 30.4201 12.4199 37.3501 13.8L41.1899 14.5823C40.9907 15.1404 40.6588 15.6563 40.2301 16.067ZM22.9501 1.97136H30.9601C36.4807 1.97136 41.0084 6.67993 41.3754 12.6255L37.6202 11.9271C30.5102 10.5471 23.3102 10.5471 16.3801 11.9271L12.6249 12.6255C12.9916 6.67993 17.5158 1.97136 22.9501 1.97136ZM14.4 18.63C15.1201 18.8271 15.9301 18.9257 16.7401 18.7285C20.1004 18.0415 23.5053 17.6967 26.9326 17.6937C30.3603 17.6967 33.8102 18.0414 37.2601 18.7285C37.506 18.7958 37.7095 18.8167 37.9001 18.8236C38.4667 18.8706 39.0588 18.7782 39.6001 18.63V23.6571C39.6001 27.9553 38.2539 31.7747 36.2325 34.6779L36.18 34.6971C36.0901 34.7956 36 34.8943 35.91 34.9928C35.4572 35.654 34.9794 36.2569 34.4801 36.8005C32.2454 39.0807 29.5562 40.4142 27.0001 40.4142H27C26.9064 40.4142 26.8131 40.4122 26.7198 40.4089C25.1991 40.3516 23.6393 39.83 22.1626 38.9261C20.6972 38.004 19.3186 36.6747 18.0901 34.9927C18.0001 34.8942 17.91 34.7955 17.8201 34.697L17.7675 34.6778C15.7463 31.7745 14.4 27.955 14.4 23.657V18.63ZM25.6468 42.2954L23.2201 48.3L18.2701 40.8086C18.2414 40.7772 18.2098 40.7461 18.1769 40.7155L17.1901 39.2314L17.5501 37.4571C17.6718 37.6007 17.7953 37.7406 17.9198 37.8783C20.0373 40.2506 22.6796 41.9046 25.6468 42.2954ZM52.2001 54.2143H31.5001H1.80004V50.9615C1.80004 49.6801 2.43001 48.4972 3.51001 47.9058C9.24679 44.5679 13.3764 42.8926 17.0552 42.3922L22.6801 50.8629C22.8214 51.0952 23.0192 51.2047 23.2716 51.2415C23.3142 51.2507 23.3571 51.2572 23.4 51.2572C23.4 51.2572 23.49 51.2572 23.49 51.3557C23.76 51.3557 24.1199 51.06 24.21 50.7643L27.0051 43.8764L28.1959 46.7374L29.7901 50.6657C29.88 50.9615 30.15 51.2572 30.5101 51.2572H30.6001C30.8701 51.2572 31.1401 51.06 31.3201 50.8629L37.0031 42.3045C40.6689 42.9104 44.8727 44.5844 50.4902 47.8071C51.5702 48.4971 52.2001 49.6799 52.2001 50.9615V54.2143Z" fill="#152E5E"/>
</svg>
