<svg width="54" height="54" viewBox="0 0 54 54" fill="none" xmlns="http://www.w3.org/2000/svg">
<path d="M50.2198 24.4016L48.8214 18.8081C49.2037 18.7269 49.4906 18.3877 49.4906 17.9813V17.0795C49.4906 15.1213 47.8975 13.5283 45.9394 13.5283H39.57V11.6681C39.57 10.7045 38.7861 9.92065 37.8226 9.92065H5.35486C4.3913 9.92065 3.60745 10.7045 3.60745 11.6681V27.0001C3.60745 27.467 3.98598 27.8456 4.453 27.8456C4.91991 27.8456 5.29854 27.4671 5.29854 27.0001V11.6681C5.29854 11.6369 5.32375 11.6117 5.35486 11.6117H37.8225C37.8536 11.6117 37.8788 11.6369 37.8788 11.6681V27.0003C37.8788 27.4672 38.2573 27.8458 38.7243 27.8458C39.1912 27.8458 39.5699 27.4673 39.5699 27.0003V26.0418H49.5439C49.5448 26.0418 49.5454 26.042 49.5462 26.042C49.547 26.042 49.5477 26.0419 49.5485 26.0419C50.7758 26.0427 51.818 26.8483 52.1759 27.9583H49.5468C49.0799 27.9583 48.7013 28.3369 48.7013 28.8039V30.6076C48.7013 32.0685 49.8897 33.2569 51.3505 33.2569H52.3088V36.9771H50.098C49.3717 34.88 47.3783 33.3695 45.0374 33.3695C42.6965 33.3695 40.7029 34.88 39.9768 36.9771H39.5697V30.6075C39.5697 30.1406 39.1911 29.762 38.7241 29.762C38.2572 29.762 37.8786 30.1405 37.8786 30.6075V36.9769H20.3362C19.6099 34.8798 17.6164 33.3693 15.2756 33.3693C12.9347 33.3693 10.9411 34.8798 10.215 36.9769H5.35486C5.32375 36.9769 5.29854 36.9517 5.29854 36.9206V35.0604H8.96242C9.42933 35.0604 9.80796 34.6819 9.80796 34.2149C9.80796 33.7478 9.42943 33.3693 8.96242 33.3693H0.845543C0.378633 33.3693 0 33.7478 0 34.2149C0 34.6819 0.378527 35.0604 0.845543 35.0604H3.60756V36.9206C3.60756 37.8841 4.3914 38.668 5.35496 38.668H9.92218C9.92197 38.6867 9.92071 38.7054 9.92071 38.7243C9.92071 41.677 12.323 44.0791 15.2756 44.0791C18.2282 44.0791 20.6304 41.677 20.6304 38.7243C20.6304 38.7053 20.6292 38.6867 20.629 38.668H39.684C39.6838 38.6867 39.6825 38.7054 39.6825 38.7243C39.6825 41.677 42.0848 44.0791 45.0374 44.0791C47.99 44.0791 50.3922 41.677 50.3922 38.7243C50.3922 38.7053 50.391 38.6867 50.3908 38.668H53.1544C53.6213 38.668 53.9999 38.2894 53.9999 37.8224V28.8037C54 26.577 52.3571 24.727 50.2198 24.4016ZM39.57 15.2193H45.9394C46.9651 15.2193 47.7996 16.0538 47.7996 17.0795V17.1358H39.57V15.2193ZM39.57 24.3508V18.8268H47.083L48.4641 24.3508H39.57ZM15.2756 42.3884C13.2553 42.3884 11.6117 40.7449 11.6117 38.7245C11.6117 36.7041 13.2553 35.0606 15.2756 35.0606C17.2958 35.0606 18.9394 36.7041 18.9394 38.7245C18.9394 40.7449 17.2958 42.3884 15.2756 42.3884ZM45.0376 42.3884C43.0173 42.3884 41.3737 40.7449 41.3737 38.7245C41.3737 36.7041 43.0173 35.0606 45.0376 35.0606C47.0578 35.0606 48.7015 36.7041 48.7015 38.7245C48.7015 40.7449 47.0578 42.3884 45.0376 42.3884ZM52.309 31.5658H51.3507C50.8223 31.5658 50.3924 31.1359 50.3924 30.6075V29.6492H52.3089V31.5658H52.309Z" fill="#152E5E"/>
<path d="M15.2755 36.9771C14.3119 36.9771 13.5281 37.7609 13.5281 38.7245C13.5281 39.688 14.3119 40.4719 15.2755 40.4719C16.239 40.4719 17.0229 39.688 17.0229 38.7245C17.0229 37.7609 16.239 36.9771 15.2755 36.9771Z" fill="#152E5E"/>
<path d="M45.0377 36.9771C44.0741 36.9771 43.2903 37.7609 43.2903 38.7245C43.2903 39.688 44.0741 40.4719 45.0377 40.4719C46.0012 40.4719 46.7851 39.688 46.7851 38.7245C46.7851 37.7609 46.0012 36.9771 45.0377 36.9771Z" fill="#152E5E"/>
<path d="M35.1168 33.3696H22.4906C22.0237 33.3696 21.645 33.7482 21.645 34.2152C21.645 34.6822 22.0235 35.0607 22.4906 35.0607H35.1168C35.5838 35.0607 35.9624 34.6822 35.9624 34.2152C35.9624 33.7482 35.5839 33.3696 35.1168 33.3696Z" fill="#152E5E"/>
<path d="M13.4718 29.7621H2.64925C2.18234 29.7621 1.80371 30.1406 1.80371 30.6076C1.80371 31.0746 2.18224 31.4532 2.64925 31.4532H13.4718C13.9387 31.4532 14.3174 31.0746 14.3174 30.6076C14.3174 30.1406 13.9387 29.7621 13.4718 29.7621Z" fill="#152E5E"/>
<path d="M29.4017 18.2853C29.0716 17.9552 28.5361 17.9552 28.206 18.2854L20.6869 25.8044L16.7754 21.8929C16.4452 21.5626 15.9098 21.5626 15.5797 21.8929C15.2495 22.2231 15.2495 22.7583 15.5797 23.0886L20.0891 27.598C20.2542 27.7631 20.4706 27.8456 20.6869 27.8456C20.9032 27.8456 21.1198 27.7631 21.2847 27.598L29.4016 19.4811C29.7318 19.1508 29.7318 18.6155 29.4017 18.2853Z" fill="#152E5E"/>
</svg>
