<svg width="54" height="54" viewBox="0 0 54 54" fill="none" xmlns="http://www.w3.org/2000/svg">
<g clip-path="url(#clip0)">
<path d="M12.2344 43.4531C10.4896 43.4531 9.07031 44.8724 9.07031 46.6172C9.07031 48.362 10.4896 49.7812 12.2344 49.7812C13.9791 49.7812 15.3984 48.362 15.3984 46.6172C15.3984 44.8724 13.9791 43.4531 12.2344 43.4531ZM12.2344 47.6719C11.6526 47.6719 11.1797 47.1989 11.1797 46.6172C11.1797 46.0355 11.6526 45.5625 12.2344 45.5625C12.8161 45.5625 13.2891 46.0355 13.2891 46.6172C13.2891 47.1989 12.8161 47.6719 12.2344 47.6719Z" fill="#152E5E"/>
<path d="M50.8359 43.4531H49.1484V20.6719C49.1484 20.0893 48.6763 19.6172 48.0938 19.6172H42.8203V5.27344C42.8203 4.69089 42.3482 4.21875 41.7656 4.21875C37.3219 4.21875 24.7963 4.21875 20.6719 4.21875C20.0893 4.21875 19.6172 4.69089 19.6172 5.27344V43.4531H18.9057C18.1761 41.9094 16.9426 40.6759 15.3984 39.9459V3.16406C15.3984 1.4193 13.9791 0 12.2344 0H3.16406C1.4193 0 0 1.4193 0 3.16406C0 4.90883 1.4193 6.32812 3.16406 6.32812H9.07031V39.9459C6.51929 41.1571 4.85156 43.7493 4.85156 46.6172C4.85156 50.688 8.16353 54 12.2344 54C15.1022 54 17.6944 52.3323 18.9057 49.7812H50.8359C52.5807 49.7812 54 48.362 54 46.6172C54 44.8724 52.5807 43.4531 50.8359 43.4531ZM47.0391 43.4531H21.7266V21.7266H29.1094V32.9062C29.1094 33.3059 29.3351 33.6709 29.6923 33.8497C30.0495 34.0285 30.4772 33.9898 30.7969 33.75L34.3828 31.0605L37.9688 33.75C38.2889 33.9902 38.7165 34.0281 39.0733 33.8497C39.4305 33.6709 39.6562 33.3059 39.6562 32.9062V21.7266H47.0391V43.4531ZM31.2188 21.7266H37.5469V30.7969L35.0156 28.8984C34.8282 28.7579 34.6053 28.6875 34.3828 28.6875C34.1603 28.6875 33.9375 28.7579 33.75 28.8984L31.2188 30.7969V21.7266ZM29.1094 6.32812H33.3281V12.3728L31.8038 11.3568C31.6266 11.2386 31.4227 11.1797 31.2188 11.1797C31.0148 11.1797 30.8109 11.2386 30.6337 11.3568L29.1094 12.3728V6.32812ZM27 6.32812V14.3438C27 14.7327 27.2142 15.0899 27.557 15.2736C27.9002 15.4574 28.3163 15.4368 28.6397 15.2213L31.2188 13.5021L33.7978 15.2213C34.1216 15.4372 34.5381 15.4569 34.8805 15.2736C35.2233 15.0903 35.4375 14.7327 35.4375 14.3438V6.32812H40.7109V19.6172C34.8883 19.6172 27.4758 19.6172 21.7266 19.6172V6.32812H27ZM3.16406 4.21875C2.58234 4.21875 2.10938 3.74579 2.10938 3.16406C2.10938 2.58234 2.58234 2.10938 3.16406 2.10938H12.2344C12.8161 2.10938 13.2891 2.58234 13.2891 3.16406V39.3106C12.9413 39.2607 12.5895 39.2344 12.2344 39.2344C11.8792 39.2344 11.5274 39.2607 11.1797 39.3106V5.27344C11.1797 4.69089 10.7076 4.21875 10.125 4.21875H3.16406ZM12.2344 51.8906C9.32657 51.8906 6.96094 49.525 6.96094 46.6172C6.96094 43.7407 9.28784 41.3438 12.2344 41.3438C15.1801 41.3438 17.5078 43.7432 17.5078 46.6172C17.5078 49.5637 15.1109 51.8906 12.2344 51.8906ZM50.8359 47.6719H19.541C19.5908 47.3242 19.6172 46.9723 19.6172 46.6172C19.6172 46.2621 19.5904 45.9102 19.541 45.5625H50.8359C51.4177 45.5625 51.8906 46.0355 51.8906 46.6172C51.8906 47.1989 51.4177 47.6719 50.8359 47.6719Z" fill="#152E5E"/>
<path d="M43.875 41.3438C44.4576 41.3438 44.9297 40.8716 44.9297 40.2891V38.1797C44.9297 37.5971 44.4576 37.125 43.875 37.125C43.2924 37.125 42.8203 37.5971 42.8203 38.1797V40.2891C42.8203 40.8716 43.2924 41.3438 43.875 41.3438Z" fill="#152E5E"/>
<path d="M43.875 32.9062C44.4571 32.9062 44.9297 33.3788 44.9297 33.9609C44.9297 34.5431 44.4571 35.0156 43.875 35.0156C43.2929 35.0156 42.8203 34.5431 42.8203 33.9609C42.8203 33.3788 43.2929 32.9062 43.875 32.9062Z" fill="#152E5E"/>
<path d="M39.6562 37.125C39.0737 37.125 38.6016 37.5971 38.6016 38.1797V40.2891C38.6016 40.8716 39.0737 41.3438 39.6562 41.3438C40.2388 41.3438 40.7109 40.8716 40.7109 40.2891V38.1797C40.7109 37.5971 40.2388 37.125 39.6562 37.125Z" fill="#152E5E"/>
</g>
<defs>
<clipPath id="clip0">
<rect width="54" height="54" fill="white"/>
</clipPath>
</defs>
</svg>
