<svg width="44" height="53" viewBox="0 0 44 53" fill="none" xmlns="http://www.w3.org/2000/svg">
<path d="M43.9354 47.1622L36.9212 30.2287C36.7425 29.7974 36.248 29.5923 35.8166 29.7711C35.3852 29.9499 35.1803 30.4444 35.3591 30.8757L41.7 46.1841L35.9161 44.5082C35.5365 44.398 35.131 44.566 34.9404 44.9124L32.0355 50.1872L25.2317 33.7612C33.0846 32.2468 39.0347 25.3233 39.0347 17.0351C39.0348 7.64194 31.393 0 21.9999 0C12.6067 0 4.96479 7.64194 4.96479 17.0351C4.96479 20.8397 6.21875 24.3568 8.33485 27.1954L0.064352 47.1622C-0.0599851 47.4625 -0.00125473 47.8074 0.215518 48.0496C0.432178 48.2917 0.768665 48.3882 1.0808 48.2978L7.90446 46.3205L11.3313 52.5437C11.4806 52.8146 11.765 52.9813 12.0717 52.9813C12.0873 52.9813 12.103 52.9809 12.1186 52.9801C12.4432 52.9621 12.7286 52.7597 12.853 52.4594L19.4065 36.6379C19.5852 36.2065 19.3803 35.712 18.9489 35.5333C18.5175 35.3547 18.023 35.5595 17.8443 35.9909L11.964 50.1872L9.05934 44.9124C8.86861 44.566 8.46291 44.398 8.08347 44.5082L2.29971 46.1841L9.55895 28.6586C12.67 31.9863 17.0958 34.07 21.9999 34.07C22.5061 34.07 23.0068 34.0465 23.5019 34.0031L31.1468 52.4594C31.2711 52.7597 31.5567 52.9621 31.8811 52.98C31.8969 52.9809 31.9124 52.9813 31.9281 52.9813C32.2348 52.9813 32.5193 52.8146 32.6684 52.5437L36.0954 46.3205L42.919 48.2978C43.2314 48.3883 43.5676 48.2917 43.7843 48.0496C44.0011 47.8074 44.0597 47.4625 43.9354 47.1622ZM6.65568 17.0351C6.65568 8.5743 13.5391 1.69089 21.9999 1.69089C30.4606 1.69089 37.3439 8.5743 37.3439 17.0351C37.3439 25.4959 30.4606 32.3792 21.9999 32.3792C13.5391 32.3792 6.65568 25.4959 6.65568 17.0351Z" fill="#152E5E"/>
</svg>
