<svg width="46" height="46" viewBox="0 0 46 46" fill="none" xmlns="http://www.w3.org/2000/svg">
<path d="M30.1509 26.5938H30.1875C30.7594 26.5938 31.3078 26.3666 31.7122 25.9622C32.1166 25.5578 32.3438 25.0094 32.3438 24.4375V23.7188C32.3437 23.2958 32.2192 22.8823 31.9858 22.5295C31.7525 22.1768 31.4205 21.9005 31.0313 21.735L32.1332 20.6332C32.268 20.4984 32.3437 20.3156 32.3438 20.125V18.6875C32.3419 16.9725 31.6597 15.3282 30.447 14.1155C29.2343 12.9028 27.59 12.2207 25.875 12.2188H20.125C18.41 12.2207 16.7657 12.9028 15.553 14.1155C14.3403 15.3282 13.6582 16.9725 13.6562 18.6875V20.125C13.6563 20.3156 13.732 20.4984 13.8668 20.6332L14.9687 21.735C14.5795 21.9005 14.2476 22.1768 14.0142 22.5295C13.7808 22.8823 13.6564 23.2958 13.6562 23.7188V24.4375C13.6563 25.0094 13.8834 25.5578 14.2878 25.9622C14.6922 26.3666 15.2406 26.5938 15.8125 26.5938H15.8492C16.0271 28.3668 16.8574 30.0105 18.1789 31.206C19.5003 32.4014 21.2188 33.0634 23.0007 33.0634C24.7827 33.0634 26.5011 32.4014 27.8226 31.206C29.144 30.0105 29.9743 28.3668 30.1523 26.5938H30.1509ZM30.9063 24.4375C30.9063 24.6281 30.8305 24.8109 30.6957 24.9457C30.561 25.0805 30.3781 25.1563 30.1875 25.1563V23C30.3781 23 30.561 23.0757 30.6957 23.2105C30.8305 23.3453 30.9063 23.5281 30.9063 23.7188V24.4375ZM15.0938 18.6875C15.0955 17.3537 15.6261 16.0749 16.5693 15.1318C17.5124 14.1886 18.7912 13.658 20.125 13.6563H25.875C27.2089 13.658 28.4876 14.1886 29.4307 15.1318C30.3739 16.0749 30.9045 17.3537 30.9063 18.6875V19.8274L30.1875 20.5462V20.125C30.1875 19.9673 30.1357 19.8139 30.04 19.6886C29.9442 19.5633 29.81 19.4729 29.6578 19.4314L21.7515 17.2752C21.5949 17.2325 21.4285 17.2442 21.2793 17.3082L16.2481 19.4645C16.1188 19.5199 16.0086 19.612 15.9312 19.7294C15.8538 19.8468 15.8125 19.9844 15.8125 20.125V20.5462L15.0938 19.8274V18.6875ZM15.0938 24.4375V23.7188C15.0938 23.5281 15.1695 23.3453 15.3043 23.2105C15.4391 23.0757 15.6219 23 15.8125 23V25.1563C15.6219 25.1563 15.4391 25.0805 15.3043 24.9457C15.1695 24.8109 15.0938 24.6281 15.0938 24.4375ZM23 31.625C21.4755 31.6233 20.014 31.0169 18.936 29.939C17.8581 28.861 17.2517 27.3995 17.25 25.875V20.5987L21.615 18.7299L28.75 20.6741V25.875C28.7483 27.3995 28.1419 28.861 27.064 29.939C25.986 31.0169 24.5245 31.6233 23 31.625Z" fill="#152E5E"/>
<path d="M8.48482 26.0446C8.59815 26.0446 8.70988 26.0177 8.81086 25.9663C8.91184 25.9148 8.99923 25.8402 9.06588 25.7486C9.13253 25.6569 9.17655 25.5508 9.19436 25.4388C9.21217 25.3269 9.20326 25.2123 9.16835 25.1045L8.285 22.3862L10.5965 20.7065C10.7193 20.6173 10.8107 20.4914 10.8576 20.3471C10.9045 20.2027 10.9045 20.0472 10.8576 19.9028C10.8106 19.7585 10.7192 19.6327 10.5964 19.5435C10.4736 19.4543 10.3257 19.4062 10.1739 19.4063H7.31685L6.4335 16.6894C6.38624 16.5456 6.29478 16.4204 6.17217 16.3316C6.04956 16.2429 5.90206 16.1951 5.75069 16.1951C5.59932 16.1951 5.45182 16.2429 5.32921 16.3316C5.2066 16.4204 5.11514 16.5456 5.06788 16.6894L4.1831 19.4063H1.32607C1.17427 19.4062 1.02636 19.4543 0.903545 19.5435C0.780727 19.6327 0.689303 19.7585 0.64238 19.9028C0.595457 20.0472 0.595443 20.2027 0.64234 20.3471C0.689238 20.4914 0.780638 20.6173 0.90344 20.7065L3.21494 22.3862L2.3316 25.1045C2.2849 25.2488 2.28507 25.4042 2.33207 25.5485C2.37907 25.6927 2.4705 25.8183 2.59326 25.9074C2.71603 25.9965 2.86383 26.0445 3.01552 26.0445C3.16721 26.0445 3.31501 25.9965 3.43775 25.9074L5.74997 24.2276L8.06219 25.9074C8.18503 25.9966 8.33298 26.0447 8.48482 26.0446ZM6.75622 22.333L7.1156 23.4442L6.17116 22.7578C6.04833 22.6685 5.90039 22.6204 5.74854 22.6204C5.59668 22.6204 5.44874 22.6685 5.32591 22.7578L4.38435 23.4442L4.74372 22.333C4.7904 22.1887 4.79023 22.0333 4.74324 21.8891C4.69624 21.7449 4.60484 21.6193 4.4821 21.5302L3.53766 20.8438H4.70563C4.85741 20.8438 5.00529 20.7957 5.12808 20.7065C5.25087 20.6173 5.34226 20.4915 5.38916 20.3471L5.74997 19.2366L6.10935 20.3471C6.15632 20.4917 6.24793 20.6177 6.37101 20.7069C6.49409 20.7961 6.64229 20.8441 6.79432 20.8438H7.96229L7.01785 21.5302C6.89511 21.6193 6.8037 21.7449 6.75671 21.8891C6.70972 22.0333 6.70955 22.1887 6.75622 22.333Z" fill="#832FA5"/>
<path d="M8.24619 11.605L7.36285 14.3233C7.31616 14.4676 7.31632 14.623 7.36332 14.7672C7.41032 14.9114 7.50175 15.0371 7.62451 15.1262C7.74728 15.2153 7.89508 15.2633 8.04677 15.2633C8.19846 15.2632 8.34626 15.2152 8.469 15.1261L10.7812 13.4464L13.0934 15.1261C13.2162 15.2152 13.364 15.2632 13.5157 15.2633C13.6674 15.2633 13.8152 15.2153 13.9379 15.1262C14.0607 15.0371 14.1521 14.9114 14.1991 14.7672C14.2461 14.623 14.2463 14.4676 14.1996 14.3233L13.3163 11.605L15.6278 9.92523C15.7506 9.83601 15.842 9.71019 15.8889 9.56582C15.9358 9.42145 15.9357 9.26594 15.8888 9.12158C15.8419 8.97722 15.7505 8.85142 15.6277 8.76222C15.5048 8.67301 15.3569 8.62498 15.2051 8.62501H12.3481L11.4648 5.90814C11.4175 5.76434 11.326 5.63913 11.2034 5.55037C11.0808 5.46161 10.9333 5.41382 10.7819 5.41382C10.6306 5.41382 10.4831 5.46161 10.3605 5.55037C10.2379 5.63913 10.1464 5.76434 10.0991 5.90814L9.21435 8.62501H6.35732C6.20552 8.62498 6.05761 8.67301 5.93479 8.76222C5.81198 8.85142 5.72055 8.97722 5.67363 9.12158C5.62671 9.26594 5.62669 9.42145 5.67359 9.56582C5.72049 9.71019 5.81189 9.83601 5.93469 9.92523L8.24619 11.605ZM9.73688 10.0625C9.88866 10.0625 10.0365 10.0144 10.1593 9.92523C10.2821 9.83601 10.3735 9.71021 10.4204 9.56586L10.7798 8.45539L11.1392 9.56586C11.1861 9.71021 11.2775 9.83601 11.4002 9.92523C11.523 10.0144 11.6709 10.0625 11.8227 10.0625H12.9907L12.0462 10.7489C11.9235 10.838 11.8321 10.9637 11.7851 11.1079C11.7381 11.2521 11.7379 11.4075 11.7846 11.5518L12.144 12.663L11.1995 11.9765C11.0767 11.8873 10.9288 11.8392 10.7769 11.8392C10.6251 11.8392 10.4771 11.8873 10.3543 11.9765L9.40985 12.663L9.76922 11.5518C9.8159 11.4075 9.81573 11.2521 9.76874 11.1079C9.72174 10.9637 9.63034 10.838 9.5076 10.7489L8.56891 10.0625H9.73688Z" fill="#832FA5"/>
<path d="M45.3574 19.9029C45.3105 19.7586 45.2191 19.6328 45.0963 19.5436C44.9735 19.4543 44.8257 19.4063 44.6739 19.4063H41.8169L40.9335 16.6894C40.8862 16.5456 40.7948 16.4204 40.6722 16.3316C40.5496 16.2429 40.4021 16.1951 40.2507 16.1951C40.0993 16.1951 39.9518 16.2429 39.8292 16.3316C39.7066 16.4204 39.6151 16.5456 39.5679 16.6894L38.6831 19.4063H35.8261C35.6743 19.4062 35.5264 19.4543 35.4035 19.5435C35.2807 19.6327 35.1893 19.7585 35.1424 19.9028C35.0955 20.0472 35.0954 20.2027 35.1423 20.3471C35.1892 20.4914 35.2806 20.6173 35.4034 20.7065L37.7149 22.3862L36.8316 25.1045C36.7849 25.2488 36.7851 25.4042 36.8321 25.5485C36.8791 25.6927 36.9705 25.8183 37.0933 25.9074C37.216 25.9965 37.3638 26.0445 37.5155 26.0445C37.6672 26.0445 37.815 25.9965 37.9378 25.9074L40.25 24.2276L42.5622 25.9074C42.6849 25.9965 42.8327 26.0445 42.9844 26.0445C43.1361 26.0445 43.2839 25.9965 43.4067 25.9074C43.5295 25.8183 43.6209 25.6927 43.6679 25.5485C43.7149 25.4042 43.715 25.2488 43.6684 25.1045L42.785 22.3862L45.0965 20.7065C45.2193 20.6172 45.3106 20.4914 45.3575 20.3471C45.4044 20.2027 45.4043 20.0473 45.3574 19.9029ZM41.2562 22.333L41.6156 23.4442L40.6712 22.7578C40.5483 22.6685 40.4004 22.6204 40.2485 22.6204C40.0967 22.6204 39.9487 22.6685 39.8259 22.7578L38.8815 23.4442L39.2408 22.333C39.2875 22.1887 39.2874 22.0333 39.2404 21.8891C39.1934 21.7449 39.102 21.6193 38.9792 21.5302L38.0377 20.8438H39.2056C39.3574 20.8438 39.5053 20.7957 39.6281 20.7065C39.7509 20.6173 39.8423 20.4915 39.8892 20.3471L40.2485 19.2366L40.6079 20.3471C40.6548 20.4915 40.7462 20.6173 40.869 20.7065C40.9918 20.7957 41.1397 20.8438 41.2914 20.8438H42.4594L41.515 21.5302C41.3927 21.6197 41.3019 21.7455 41.2554 21.8896C41.209 22.0338 41.2092 22.189 41.2562 22.333Z" fill="#832FA5"/>
<path d="M32.6837 11.605L31.8003 14.3233C31.7537 14.4676 31.7538 14.623 31.8008 14.7672C31.8478 14.9114 31.9392 15.0371 32.062 15.1262C32.1848 15.2153 32.3326 15.2633 32.4843 15.2633C32.636 15.2632 32.7838 15.2152 32.9065 15.1261L35.2187 13.4464L37.5309 15.1261C37.6537 15.2152 37.8015 15.2632 37.9532 15.2633C38.1049 15.2633 38.2527 15.2153 38.3754 15.1262C38.4982 15.0371 38.5896 14.9114 38.6366 14.7672C38.6836 14.623 38.6838 14.4676 38.6371 14.3233L37.7537 11.605L40.0652 9.92523C40.188 9.83601 40.2794 9.71019 40.3263 9.56582C40.3732 9.42145 40.3732 9.26594 40.3263 9.12158C40.2794 8.97722 40.188 8.85142 40.0651 8.76222C39.9423 8.67301 39.7944 8.62498 39.6426 8.62501H36.7856L35.9022 5.90814C35.855 5.76434 35.7635 5.63913 35.6409 5.55037C35.5183 5.46161 35.3708 5.41382 35.2194 5.41382C35.0681 5.41382 34.9206 5.46161 34.798 5.55037C34.6753 5.63913 34.5839 5.76434 34.5366 5.90814L33.6518 8.62501H30.7948C30.643 8.62498 30.4951 8.67301 30.3723 8.76222C30.2495 8.85142 30.1581 8.97722 30.1111 9.12158C30.0642 9.26594 30.0642 9.42145 30.1111 9.56582C30.158 9.71019 30.2494 9.83601 30.3722 9.92523L32.6837 11.605ZM34.1744 10.0625C34.3262 10.0625 34.474 10.0144 34.5968 9.92523C34.7196 9.83601 34.811 9.71021 34.8579 9.56586L35.2173 8.45539L35.5767 9.56586C35.6236 9.71021 35.7149 9.83601 35.8377 9.92523C35.9605 10.0144 36.1084 10.0625 36.2602 10.0625H37.4282L36.4837 10.7489C36.361 10.838 36.2696 10.9637 36.2226 11.1079C36.1756 11.2521 36.1754 11.4075 36.2221 11.5518L36.5815 12.663L35.637 11.9765C35.5142 11.8873 35.3663 11.8392 35.2144 11.8392C35.0626 11.8392 34.9146 11.8873 34.7918 11.9765L33.8473 12.663L34.2067 11.5518C34.2534 11.4075 34.2532 11.2521 34.2062 11.1079C34.1592 10.9637 34.0678 10.838 33.9451 10.7489L33.0064 10.0625H34.1744Z" fill="#832FA5"/>
<path d="M20.4649 7.29245L19.5816 10.0108C19.5349 10.1551 19.5351 10.3105 19.5821 10.4547C19.6291 10.5989 19.7205 10.7246 19.8433 10.8137C19.966 10.9028 20.1138 10.9508 20.2655 10.9508C20.4172 10.9507 20.565 10.9027 20.6878 10.8136L23 9.13389L25.3122 10.8136C25.4349 10.9027 25.5827 10.9507 25.7344 10.9508C25.8861 10.9508 26.0339 10.9028 26.1567 10.8137C26.2794 10.7246 26.3709 10.5989 26.4179 10.4547C26.4649 10.3105 26.465 10.1551 26.4184 10.0108L25.535 7.29245L27.8465 5.61273C27.9693 5.52351 28.0607 5.39769 28.1076 5.25332C28.1545 5.10895 28.1545 4.95344 28.1076 4.80908C28.0606 4.66472 27.9692 4.53892 27.8464 4.44972C27.7236 4.36051 27.5757 4.31248 27.4239 4.31251H24.5668L23.6835 1.59564C23.6362 1.45184 23.5448 1.32663 23.4222 1.23787C23.2996 1.14911 23.1521 1.10132 23.0007 1.10132C22.8493 1.10132 22.7018 1.14911 22.5792 1.23787C22.4566 1.32663 22.3651 1.45184 22.3179 1.59564L21.4331 4.31251H18.5761C18.4243 4.31248 18.2764 4.36051 18.1535 4.44972C18.0307 4.53892 17.9393 4.66472 17.8924 4.80908C17.8455 4.95344 17.8454 5.10895 17.8923 5.25332C17.9392 5.39769 18.0306 5.52351 18.1534 5.61273L20.4649 7.29245ZM21.9556 5.75001C22.1074 5.75 22.2553 5.70195 22.3781 5.61273C22.5009 5.52351 22.5923 5.39771 22.6392 5.25336L23 4.14289L23.3593 5.25336C23.4063 5.39794 23.4979 5.52391 23.621 5.61315C23.7441 5.70239 23.8923 5.75031 24.0443 5.75001H25.2123L24.2678 6.43642C24.1451 6.52552 24.0537 6.65117 24.0067 6.79537C23.9597 6.93958 23.9595 7.09495 24.0062 7.23926L24.3656 8.35045L23.4212 7.66405C23.2983 7.57476 23.1504 7.52666 22.9985 7.52666C22.8467 7.52666 22.6987 7.57476 22.5759 7.66405L21.6315 8.35045L21.9908 7.23926C22.0375 7.09495 22.0374 6.93958 21.9904 6.79537C21.9434 6.65117 21.852 6.52552 21.7292 6.43642L20.7877 5.75001H21.9556Z" fill="#832FA5"/>
<path d="M27.3125 33.0625H18.6875C15.632 33.0658 12.6724 34.1301 10.3148 36.0737C7.95707 38.0172 6.3476 40.7193 5.76146 43.718C5.74308 43.8214 5.74758 43.9276 5.77464 44.029C5.8017 44.1305 5.85066 44.2248 5.91807 44.3053C5.98549 44.3858 6.06973 44.4505 6.16486 44.495C6.25999 44.5394 6.3637 44.5625 6.46871 44.5625H39.5312C39.6361 44.5625 39.7396 44.5396 39.8347 44.4953C39.9297 44.451 40.0139 44.3865 40.0814 44.3062C40.1488 44.226 40.1979 44.1319 40.2252 44.0307C40.2524 43.9294 40.2572 43.8235 40.2392 43.7202C39.7074 41.0998 38.389 38.704 36.46 36.8525C35.2616 35.6473 33.8361 34.6917 32.2659 34.0412C30.6957 33.3906 29.0121 33.058 27.3125 33.0625ZM26.45 34.5L25.254 40.9688H20.7474L19.55 34.5H26.45ZM7.36068 43.125C8.02151 40.7469 9.41353 38.6368 11.3397 37.0935C13.2659 35.5501 15.6288 34.6516 18.0938 34.5252L19.4429 41.8184C19.4734 41.9835 19.5608 42.1326 19.6899 42.24C19.8189 42.3474 19.9815 42.4062 20.1494 42.4063H25.8505C26.0184 42.4062 26.181 42.3474 26.3101 42.24C26.4391 42.1326 26.5265 41.9835 26.5571 41.8184L27.9054 34.5288C30.7468 34.6635 33.4354 35.855 35.4437 37.8695C36.942 39.3177 38.0414 41.1278 38.6356 43.125H7.36068Z" fill="#152E5E"/>
</svg>
