<svg width="44" height="44" viewBox="0 0 44 44" fill="none" xmlns="http://www.w3.org/2000/svg">
<path d="M40.1494 29.7725L34.7742 28.5319V27.1344C35.3207 26.6961 35.7812 26.1572 36.1353 25.5484H36.9032C38.8597 25.5484 40.4516 23.9564 40.4516 22C40.4516 21.2078 40.182 20.4839 39.7419 19.8928V17.0322C39.7419 12.3362 35.9219 8.51611 31.2258 8.51611C26.5297 8.51611 22.7097 12.3362 22.7097 17.0322V19.8928C22.2696 20.4839 22 21.2085 22 22C22 23.9564 23.5919 25.5484 25.5484 25.5484H26.3163C26.6697 26.1572 27.131 26.6961 27.6774 27.1344V28.5319L22.3022 29.7725C21.9511 29.8532 21.614 29.9797 21.2903 30.1336V26.258C21.2903 25.0844 20.335 24.129 19.1613 24.129H2.12903C0.955362 24.129 0 25.0844 0 26.258V39.0322C0 40.2059 0.955362 41.1613 2.12903 41.1613H7.80645V42.5806H6.3871V44H44V34.613C44 32.2861 42.4167 30.2954 40.1494 29.7725ZM28.226 29.8626L29.9561 31.1599L28.2069 32.2096L27.8306 29.9534L28.226 29.8626ZM30.4593 35.4839H31.993L32.5842 42.5806H29.8681L30.4593 35.4839ZM32.1333 34.0645H30.3176L29.9101 32.8423L31.2258 32.0533L32.5409 32.8423L32.1333 34.0645ZM32.4962 31.1599L34.2263 29.8626L34.7267 29.9783L34.2766 32.2279L32.4962 31.1599ZM36.9032 24.129H36.7164C36.8343 23.674 36.9032 23.2007 36.9032 22.7097V19.871C38.0769 19.871 39.0323 20.8263 39.0323 22C39.0323 23.1737 38.0769 24.129 36.9032 24.129ZM31.2258 9.93547C35.1391 9.93547 38.3226 13.119 38.3226 17.0322V18.7524C37.887 18.5608 37.4085 18.4516 36.9032 18.4516V17.0322H35.4839V17.4283C34.9915 17.857 34.4017 18.1619 33.7707 18.321C33.7984 18.2939 33.8289 18.2707 33.8566 18.2437L32.8531 17.2402C32.3236 17.7696 31.6531 18.1394 30.932 18.321C30.9597 18.2939 30.9902 18.2707 31.0179 18.2437L30.0144 17.2402C29.2444 18.0101 28.1785 18.4516 27.0897 18.4516H26.9677V17.0322H25.5484V18.4516C25.0432 18.4516 24.5646 18.5608 24.129 18.7524V17.0322C24.129 13.119 27.3125 9.93547 31.2258 9.93547ZM25.5484 24.129C24.3747 24.129 23.4194 23.1737 23.4194 22C23.4194 20.8263 24.3747 19.871 25.5484 19.871V22.7097C25.5484 23.2007 25.6173 23.674 25.7352 24.129H25.5484ZM26.9677 22.7097V19.871H27.0897C27.7789 19.871 28.4595 19.7348 29.0968 19.487V19.871H29.9284C30.6177 19.871 31.2982 19.7348 31.9355 19.487V19.871H32.7671C33.7204 19.871 34.6585 19.6149 35.4839 19.1533V22.7097C35.4839 23.208 35.3931 23.6841 35.2354 24.129H31.2258V25.5484H34.3909C33.6109 26.4171 32.4833 26.9677 31.2258 26.9677C28.8774 26.9677 26.9677 25.058 26.9677 22.7097ZM31.2258 28.3871C31.9788 28.3871 32.6971 28.2367 33.3548 27.9692V28.7419L31.2258 30.3387L29.0968 28.7419V27.9692C29.7545 28.2367 30.4728 28.3871 31.2258 28.3871ZM22.621 31.1554L26.4448 30.2735L27.1486 34.4994L28.664 33.5905L29.0874 34.8608L28.4439 42.5806H24.8387V34.7742H23.4194V42.5806H19.871V41.0306C20.695 40.7368 21.2903 39.9561 21.2903 39.0322V31.7823C21.685 31.485 22.1369 31.2677 22.621 31.1554ZM13.4839 41.1613H18.4516V42.5806H13.4839V41.1613ZM2.12903 39.7419C1.73746 39.7419 1.41935 39.4238 1.41935 39.0322V26.258C1.41935 25.8665 1.73746 25.5484 2.12903 25.5484H19.1613C19.5529 25.5484 19.871 25.8665 19.871 26.258V39.0322C19.871 39.4238 19.5529 39.7419 19.1613 39.7419H13.4839V38.3226C13.4839 36.757 12.2107 35.4839 10.6452 35.4839C9.07957 35.4839 7.80645 36.757 7.80645 38.3226V39.7419H2.12903ZM9.22581 38.3226C9.22581 37.5398 9.86237 36.9032 10.6452 36.9032C11.428 36.9032 12.0645 37.5398 12.0645 38.3226V42.5806H9.22581V38.3226ZM42.5806 42.5806H39.0323V34.7742H37.6129V42.5806H34.0077L33.3649 34.8608L33.7876 33.5905L35.2725 34.4817L36.109 30.2975L39.8306 31.1561C41.4492 31.5297 42.5806 32.9511 42.5806 34.613V42.5806Z" fill="#152E5E"/>
<path d="M17.742 14.5064C17.742 13.5888 17.157 12.7769 16.2866 12.4868L13.4839 11.5526V10.6267C14.3405 9.97802 14.9033 8.96028 14.9033 7.80637V6.38701C14.9033 4.43055 13.3113 2.83862 11.3549 2.83862C9.39841 2.83862 7.80648 4.43055 7.80648 6.38701V7.80637C7.80648 8.96098 8.36924 9.97871 9.22584 10.6267V11.5526L6.42317 12.4868C5.5527 12.7776 4.96777 13.5888 4.96777 14.5064V18.4515H17.742V14.5064ZM9.22584 6.38701C9.22584 5.21334 10.1812 4.25798 11.3549 4.25798C12.5285 4.25798 13.4839 5.21334 13.4839 6.38701V7.80637C13.4839 8.98004 12.5285 9.9354 11.3549 9.9354C10.1812 9.9354 9.22584 8.98004 9.22584 7.80637V6.38701ZM16.3226 17.0322H6.38713V14.5064C6.38713 14.2004 6.58153 13.9301 6.87261 13.8331L10.6452 12.5762V11.283C10.8746 11.3298 11.1123 11.3548 11.3549 11.3548C11.5974 11.3548 11.8352 11.3298 12.0645 11.283V12.5762L15.8371 13.8331C16.1282 13.9301 16.3226 14.2014 16.3226 14.5064V17.0322Z" fill="#832FA5"/>
<path d="M11.3548 22.7097C17.6155 22.7097 22.7097 17.6155 22.7097 11.3548C22.7097 5.09422 17.6155 0 11.3548 0C5.09422 0 0 5.09422 0 11.3548C0 17.6155 5.09422 22.7097 11.3548 22.7097ZM11.3548 1.41935C16.8337 1.41935 21.2903 5.87598 21.2903 11.3548C21.2903 16.8337 16.8337 21.2903 11.3548 21.2903C5.87598 21.2903 1.41935 16.8337 1.41935 11.3548C1.41935 5.87598 5.87598 1.41935 11.3548 1.41935Z" fill="#152E5E"/>
<path d="M26.2581 4.25806H27.6774V5.67741H26.2581V4.25806Z" fill="#152E5E"/>
<path d="M30.5161 4.25806H31.9355V5.67741H30.5161V4.25806Z" fill="#152E5E"/>
<path d="M34.7742 4.25806H36.1935V5.67741H34.7742V4.25806Z" fill="#152E5E"/>
</svg>
