<svg width="44" height="44" viewBox="0 0 44 44" fill="none" xmlns="http://www.w3.org/2000/svg">
<g clip-path="url(#clip0)">
<path d="M15.6166 31.523C15.5544 31.5053 15.4908 31.4954 15.4268 31.4919C16.3682 30.5025 16.9479 29.166 16.9479 27.6957V23.1745C16.9479 23.1331 16.944 23.0928 16.9384 23.0531C16.944 22.9715 16.9479 22.8893 16.9479 22.8063V19.9458C16.9479 19.4712 16.5632 19.0864 16.0885 19.0864H10.3244C7.89714 19.0864 5.92247 21.0612 5.92247 23.4884V27.6957C5.92247 29.166 6.50212 30.5025 7.44356 31.4919C7.37962 31.4954 7.31603 31.5053 7.25398 31.523C3.19284 31.8908 0 35.3137 0 39.469V43.1406C0 43.6152 0.384742 44 0.859375 44H22.0109C22.4855 44 22.8703 43.6152 22.8703 43.1406V39.469C22.8703 35.3138 19.6776 31.8909 15.6166 31.523ZM7.64122 24.5782V23.4883C7.64122 22.0088 8.84494 20.8051 10.3244 20.8051H15.2292V22.8062C15.2292 23.8137 14.4096 24.6333 13.4021 24.6333H7.64122V24.5782ZM7.64122 26.352H13.4021C14.07 26.352 14.6952 26.1662 15.2292 25.8438V27.6956C15.2292 29.7876 13.5272 31.4896 11.4352 31.4896C9.34321 31.4896 7.64122 29.7876 7.64122 27.6956V26.352ZM13.3056 33.2085L11.4352 35.079L9.56476 33.2085H13.3056ZM21.1516 42.2812H1.71875V40.5625H5.28516C5.75979 40.5625 6.14453 40.1777 6.14453 39.7031C6.14453 39.2285 5.75979 38.8437 5.28516 38.8437H1.75012C2.03878 35.9462 4.31157 33.6259 7.18609 33.2604L10.8275 36.9019C10.9887 37.063 11.2073 37.1536 11.4352 37.1536C11.6631 37.1536 11.8817 37.063 12.0429 36.9019L15.6843 33.2604C18.7629 33.6517 21.1516 36.2858 21.1516 39.469V42.2812Z" fill="#152E5E"/>
<path d="M36.7465 12.4367C36.6843 12.419 36.6206 12.409 36.5565 12.4056C37.4979 11.4162 38.0775 10.0796 38.0775 8.60939V4.08805C38.0775 4.04671 38.0736 4.00641 38.068 3.9667C38.0737 3.88506 38.0775 3.80291 38.0775 3.71989V0.859375C38.0775 0.384742 37.6928 0 37.2182 0H31.4541C29.0268 0 27.0521 1.97476 27.0521 4.40198V8.6093C27.0521 10.0795 27.6318 11.4161 28.5731 12.4055C28.5091 12.4089 28.4453 12.4189 28.3832 12.4366C24.3222 12.8045 21.1296 16.2275 21.1296 20.3826V24.0541C21.1296 24.5287 21.5144 24.9135 21.989 24.9135H28.9035C29.3782 24.9135 29.7629 24.5287 29.7629 24.0541C29.7629 23.5794 29.3782 23.1947 28.9035 23.1947H22.8484V20.3827C22.8484 17.1994 25.237 14.5654 28.3156 14.1741L31.9571 17.8155C32.1249 17.9834 32.3448 18.0672 32.5647 18.0672C32.7846 18.0672 33.0047 17.9834 33.1724 17.8155L36.8138 14.1741C39.8926 14.5655 42.2813 17.1994 42.2813 20.3827V23.1948H35.9505C35.4759 23.1948 35.0911 23.5795 35.0911 24.0542C35.0911 24.5288 35.4759 24.9135 35.9505 24.9135H43.1406C43.6153 24.9135 44 24.5288 44 24.0542V20.3827C44 16.2276 40.8073 12.8046 36.7465 12.4367ZM32.5649 15.9925L30.6945 14.1221H34.4353L32.5649 15.9925ZM36.3589 8.6093C36.3589 10.7013 34.6569 12.4033 32.5649 12.4033C30.4729 12.4033 28.7709 10.7014 28.7709 8.60939V7.26567H34.5318C35.1997 7.26567 35.8249 7.07979 36.3589 6.75744V8.6093ZM36.3589 3.71989C36.3589 4.72734 35.5393 5.54692 34.5318 5.54692H28.7709V5.49184V4.40198C28.7709 2.92248 29.9747 1.71875 31.4542 1.71875H36.3589V3.71989Z" fill="#152E5E"/>
<path d="M33.1728 23.4464C33.0129 23.2865 32.7912 23.1946 32.5652 23.1946C32.3383 23.1946 32.1174 23.2865 31.9576 23.4464C31.7969 23.6062 31.7058 23.8279 31.7058 24.054C31.7058 24.2808 31.7969 24.5017 31.9576 24.6615C32.1174 24.8222 32.3383 24.9133 32.5652 24.9133C32.7912 24.9133 33.0129 24.8222 33.1728 24.6615C33.3326 24.5017 33.4246 24.2808 33.4246 24.054C33.4246 23.8279 33.3326 23.6062 33.1728 23.4464Z" fill="#152E5E"/>
<path d="M22.9801 12.0251L19.3861 8.43116V4.29688C19.3861 1.92758 17.4585 0 15.0892 0H4.29688C1.92758 0 0 1.92758 0 4.29688V11.8594C0 14.2287 1.92758 16.1562 4.29688 16.1562H15.0892C16.8658 16.1562 18.4151 15.09 19.0651 13.4922H22.3724C22.7199 13.4922 23.0333 13.2828 23.1663 12.9617C23.2994 12.6406 23.2258 12.2709 22.9801 12.0251ZM18.4382 11.7734C18.0379 11.7734 17.6905 12.0499 17.6007 12.4401C17.3302 13.6161 16.2974 14.4375 15.0892 14.4375H4.29688C2.8753 14.4375 1.71875 13.281 1.71875 11.8594V4.29688C1.71875 2.8753 2.8753 1.71875 4.29688 1.71875H15.0892C16.5107 1.71875 17.6673 2.8753 17.6673 4.29688V8.78711C17.6673 9.01502 17.7579 9.23364 17.919 9.39477L20.2977 11.7734H18.4382Z" fill="#152E5E"/>
<path d="M39.7031 27.8438H28.9108C27.1341 27.8438 25.5849 28.91 24.9348 30.5078H21.6276C21.2801 30.5078 20.9667 30.7172 20.8336 31.0383C20.7006 31.3594 20.7742 31.7291 21.0199 31.9749L24.6139 35.5688V39.7031C24.6139 42.0724 26.5414 44 28.9107 44H39.7031C42.0724 44 44 42.0724 44 39.7031V32.1406C44 29.7713 42.0724 27.8438 39.7031 27.8438ZM42.2812 39.7031C42.2812 41.1247 41.1247 42.2812 39.7031 42.2812H28.9108C27.4892 42.2812 26.3327 41.1247 26.3327 39.7031V35.2129C26.3327 34.985 26.2421 34.7664 26.081 34.6052L23.7023 32.2266H25.5617C25.9621 32.2266 26.3095 31.9501 26.3993 31.5599C26.6698 30.3839 27.7025 29.5625 28.9108 29.5625H39.7031C41.1247 29.5625 42.2812 30.719 42.2812 32.1406V39.7031Z" fill="#152E5E"/>
<path d="M38.1697 33.6352C37.8342 33.2996 37.2901 33.2996 36.9545 33.6352L34.67 35.9197L33.6077 34.8574C33.2721 34.5219 32.728 34.5219 32.3923 34.8574C32.0567 35.193 32.0567 35.7372 32.3923 36.0729L34.0622 37.7428C34.2301 37.9106 34.45 37.9945 34.6699 37.9945C34.8898 37.9945 35.1098 37.9106 35.2776 37.7428L38.1697 34.8506C38.5053 34.5151 38.5053 33.9709 38.1697 33.6352Z" fill="#A52F8C"/>
<path d="M13.5999 5.69487C13.4983 4.2213 12.3105 3.03348 10.8369 2.9319C10.0013 2.8744 9.20488 3.15628 8.59472 3.72587C7.99307 4.28748 7.64795 5.08154 7.64795 5.9043C7.64804 6.37902 8.03278 6.76376 8.50741 6.76376C8.98204 6.76376 9.36678 6.37902 9.36678 5.90439C9.36678 5.5511 9.5091 5.22368 9.7676 4.98237C10.0257 4.7414 10.3638 4.62177 10.7188 4.64669C11.3409 4.68958 11.8424 5.19102 11.8853 5.81312C11.9287 6.4421 11.5163 6.99794 10.9049 7.13476C10.2356 7.28446 9.7682 7.86634 9.7682 8.54972V9.00819C9.7682 9.48283 10.1529 9.86757 10.6276 9.86757C11.1022 9.86757 11.4869 9.48283 11.4869 9.00819V8.75812C12.8185 8.36091 13.6972 7.10562 13.5999 5.69487Z" fill="#A52F8C"/>
<path d="M11.2355 11.6893C11.0757 11.5295 10.8539 11.4375 10.6279 11.4375C10.4011 11.4375 10.1802 11.5295 10.0204 11.6893C9.85965 11.8491 9.76855 12.0709 9.76855 12.2969C9.76855 12.5229 9.85965 12.7446 10.0204 12.9045C10.1802 13.0643 10.4011 13.1562 10.6279 13.1562C10.8539 13.1562 11.0757 13.0643 11.2355 12.9045C11.3954 12.7446 11.4873 12.5229 11.4873 12.2969C11.4873 12.0709 11.3954 11.8491 11.2355 11.6893Z" fill="#A52F8C"/>
<path d="M9.33023 39.0955C9.17039 38.9357 8.94867 38.8438 8.72266 38.8438C8.49664 38.8438 8.27492 38.9357 8.11508 39.0955C7.95523 39.2554 7.86328 39.4771 7.86328 39.7031C7.86328 39.9291 7.95523 40.1509 8.11508 40.3107C8.27492 40.4705 8.49664 40.5625 8.72266 40.5625C8.94867 40.5625 9.17039 40.4705 9.33023 40.3107C9.49008 40.1509 9.58203 39.9291 9.58203 39.7031C9.58203 39.4771 9.49008 39.2554 9.33023 39.0955Z" fill="#152E5E"/>
</g>
<defs>
<clipPath id="clip0">
<rect width="44" height="44" fill="white"/>
</clipPath>
</defs>
</svg>
